# xmcd
#
# Track frame offsets: 
#        150
#        13497
#        25352
#        40015
#        50287
#        64635
#        79175
#        90710
#        103765
#        118085
#        130629
#        144085
#        157582
#        189567
#        201437
#
# Disc length: 2881 seconds
#
# Revision: 2
# Processed by: cddbd v1.5.1PL0 Copyright (c) Steve Scherf et al.
# Submitted via: ExactAudioCopy v0.95a5
#
DISCID=c20b3f0f
DTITLE=Various Artist - Tradition Runs Deep
DYEAR=1998
DGENRE=Blues
TTITLE0=Mississippi Fred McDowell - You Got to Move
TTITLE1=Mrs. Etta Baker - John Henry
TTITLE2=Leadbelly - In New Orleans (House of the Rising Sun)
TTITLE3=Woody Guthrie - More Pretty Girls Than One
TTITLE4=Big Bill Broonzy - Treat Everybody Right
TTITLE5=Odetta - Jack O' Diamonds
TTITLE6=Kossoy Sisters and Erik Darling - Down in the Willow Garden
TTITLE7=Sonny Terry and Brownie McGhee - Walk On
TTITLE8=Lightnin' Hopkins - See See Rider
TTITLE9=Blind Lemon Jefferson - Balky Mule Blues
TTITLE10=Louis Armstrong - I'm not Rough
TTITLE11=Dizzy Gillespie - Oop Bop Sh'Bam
TTITLE12=Charlie Barnet - Cherokee
TTITLE13=Pete Fountain - Bayou Blues
TTITLE14=Woody Herman and Charlie Byrd - Bamba Samba
EXTD=
EXTT0=
EXTT1=
EXTT2=
EXTT3=
EXTT4=
EXTT5=
EXTT6=
EXTT7=
EXTT8=
EXTT9=
EXTT10=
EXTT11=
EXTT12=
EXTT13=
EXTT14=
PLAYORDER=
